<svg width="326" height="160" viewBox="0 0 326 160" fill="none" xmlns="http://www.w3.org/2000/svg">
<path d="M6 158C6 116.626 22.4357 76.947 51.6913 47.6913C80.947 18.4357 120.626 2 162 2C203.374 2 243.053 18.4357 272.309 47.6913C301.564 76.947 318 116.626 318 158" stroke="#FFD703" stroke-width="3"/>
<path d="M317.293 159.707C317.683 160.098 318.317 160.098 318.707 159.707L325.071 153.343C325.462 152.953 325.462 152.319 325.071 151.929C324.681 151.538 324.047 151.538 323.657 151.929L318 157.586L312.343 151.929C311.953 151.538 311.319 151.538 310.929 151.929C310.538 152.319 310.538 152.953 310.929 153.343L317.293 159.707ZM317 158L317 159L319 159L319 158L317 158Z" fill="#FFD703"/>
<circle cx="6" cy="154" r="6" transform="rotate(-180 6 154)" fill="#FFD703"/>
</svg>
