<svg width="326" height="160" viewBox="0 0 326 160" fill="none" xmlns="http://www.w3.org/2000/svg">
<path d="M318 2C318 43.3738 301.564 83.053 272.309 112.309C243.053 141.564 203.374 158 162 158C120.626 158 80.947 141.564 51.6914 112.309C22.4357 83.053 6.00001 43.3738 6 2.00002" stroke="#FFD703" stroke-width="3"/>
<path d="M318.707 0.292893C318.317 -0.097631 317.683 -0.097631 317.293 0.292893L310.929 6.65685C310.538 7.04738 310.538 7.68054 310.929 8.07107C311.319 8.46159 311.953 8.46159 312.343 8.07107L318 2.41421L323.657 8.07107C324.047 8.46159 324.681 8.46159 325.071 8.07107C325.462 7.68054 325.462 7.04738 325.071 6.65685L318.707 0.292893ZM319 2L319 1L317 1L317 2L319 2Z" fill="#FFD703"/>
<circle cx="6" cy="6" r="6" fill="#FFD703"/>
</svg>
